<svg xmlns="http://www.w3.org/2000/svg" viewBox="0 0 1600 1000"><defs><linearGradient id="floor" x2="0" y2="1"><stop stop-color="#191917"/><stop offset="1" stop-color="#080908"/></linearGradient><linearGradient id="stone"><stop stop-color="#232421"/><stop offset=".55" stop-color="#555044"/><stop offset="1" stop-color="#1a1b18"/></linearGradient><radialGradient id="light"><stop stop-color="#bba17a" stop-opacity=".3"/><stop offset="1" stop-color="#12130f" stop-opacity="0"/></radialGradient></defs><path fill="#0c0e0c" d="M0 0h1600v1000H0z"/><path fill="url(#floor)" d="M1000 510L1600 1000H0z"/><ellipse fill="url(#light)" cx="1050" cy="700" rx="520" ry="280"/><g fill="none" stroke="url(#stone)"><path stroke-width="100" d="M600 1000V420a425 425 0 0 1 850 0v580"/><path stroke-width="65" d="M775 855V440a265 265 0 0 1 530 0v415"/><path stroke-width="40" d="M883 748V457a167 167 0 0 1 334 0v291"/><path stroke-width="25" d="M950 670V472a108 108 0 0 1 216 0v198"/></g><g fill="none" stroke="#c7ad82" opacity=".6"><path stroke-width="3" d="M652 1000V420a373 373 0 0 1 746 0v580"/><path stroke-width="2" d="M808 855V440a232 232 0 0 1 464 0v415"/><path d="M904 748V457a146 146 0 0 1 292 0v291"/><path d="M963 670V472a95 95 0 0 1 190 0v198"/></g><path d="M1060 540L780 1000M1060 540l370 460" fill="none" stroke="#746347" stroke-opacity=".25"/><path d="M0 0h700v1000H0z" fill="#080908" opacity=".35"/></svg>
